HIERARCHY
ROOT reference
{
  OFFSET 0 0 0
  CHANNELS 6 Xposition Yposition Zposition Zrotation Xrotation Yrotation
  JOINT Hips
  {
    OFFSET 347.352 87.9396 215.108
    CHANNELS 3 Zrotation Xrotation Yrotation
    JOINT RightUpLeg
    {
      OFFSET -9.26448 -1.5905 0.0349838
      CHANNELS 3 Zrotation Xrotation Yrotation
      JOINT RightLeg
      {
        OFFSET 0.0309074 -41.8937 0.0182011
        CHANNELS 3 Zrotation Xrotation Yrotation
        JOINT RightFoot
        {
          OFFSET 0.355296 -42.3801 0.810868
          CHANNELS 3 Zrotation Xrotation Yrotation
          End Site
          {
            OFFSET 0 -7.69 17.5
          }
        }
      }
    }
    JOINT LeftUpLeg
    {
      OFFSET 9.27369 -1.59127 -0.0547904
      CHANNELS 3 Zrotation Xrotation Yrotation
      JOINT LeftLeg
      {
        OFFSET 0.0553589 -41.8938 0.0587288
        CHANNELS 3 Zrotation Xrotation Yrotation
        JOINT LeftFoot
        {
          OFFSET 0.217916 -41.5497 -0.688939
          CHANNELS 3 Zrotation Xrotation Yrotation
          End Site
          {
            OFFSET 0 -7.69 17.5
          }
        }
      }
    }
    JOINT Spine
    {
      OFFSET 0.0383554 14.2988 0.0402393
      CHANNELS 3 Zrotation Xrotation Yrotation
      JOINT Spine1
      {
        OFFSET 0.0188251 9.70742 0.0136471
        CHANNELS 3 Zrotation Xrotation Yrotation
        JOINT Spine2
        {
          OFFSET 0.0421292 10.115 0.0126686
          CHANNELS 3 Zrotation Xrotation Yrotation
          JOINT Spine3
          {
            OFFSET 0.0499826 9.71803 0.0151296
            CHANNELS 3 Zrotation Xrotation Yrotation
            JOINT Neck
            {
              OFFSET 0.04654 10.3867 0.0448026
              CHANNELS 3 Zrotation Xrotation Yrotation
              JOINT Head
              {
                OFFSET 0.0370611 9.47282 0.0189897
                CHANNELS 3 Zrotation Xrotation Yrotation
                End Site
                {
                  OFFSET 0 15.95 0
                }
              }
            }
            JOINT RightShoulder
            {
              OFFSET -3.19309 6.93146 -0.00624137
              CHANNELS 3 Zrotation Xrotation Yrotation
              JOINT RightArm
              {
                OFFSET -12.7764 0.00688168 -0.00548706
                CHANNELS 3 Zrotation Xrotation Yrotation
                JOINT RightForeArm
                {
                  OFFSET -26.5073 -0.0244096 0.0677859
                  CHANNELS 3 Zrotation Xrotation Yrotation
                  JOINT RightHand
                  {
                    OFFSET -26.0056 -0.000416843 0.0508974
                    CHANNELS 3 Zrotation Xrotation Yrotation
                    JOINT RightHandThumb1
                    {
                      OFFSET -2.48905 0.190105 3.12053
                      CHANNELS 3 Zrotation Xrotation Yrotation
                      JOINT RightHandThumb2
                      {
                        OFFSET -3.68274 0 0
                        CHANNELS 3 Zrotation Xrotation Yrotation
                        JOINT RightHandThumb3
                        {
                          OFFSET -2.55832 0 0
                          CHANNELS 3 Zrotation Xrotation Yrotation
                          End Site
                          {
                            OFFSET -2.194 0 0
                          }
                        }
                      }
                    }
                    JOINT RightInHandIndex
                    {
                      OFFSET -3.22368 0.508421 1.97842
                      CHANNELS 3 Zrotation Xrotation Yrotation
                      JOINT RightHandIndex1
                      {
                        OFFSET -5.21684 -0.091368 0.999158
                        CHANNELS 3 Zrotation Xrotation Yrotation
                        JOINT RightHandIndex2
                        {
                          OFFSET -3.61937 0 0
                          CHANNELS 3 Zrotation Xrotation Yrotation
                          JOINT RightHandIndex3
                          {
                            OFFSET -2.0521 0 0
                            CHANNELS 3 Zrotation Xrotation Yrotation
                            End Site
                            {
                              OFFSET -1.805 0 0
                            }
                          }
                        }
                      }
                    }
                    JOINT RightInHandMiddle
                    {
                      OFFSET -3.38211 0.517263 0.756737
                      CHANNELS 3 Zrotation Xrotation Yrotation
                      JOINT RightHandMiddle1
                      {
                        OFFSET -5.17411 -0.084 0.313895
                        CHANNELS 3 Zrotation Xrotation Yrotation
                        JOINT RightHandMiddle2
                        {
                          OFFSET -3.94947 0 0
                          CHANNELS 3 Zrotation Xrotation Yrotation
                          JOINT RightHandMiddle3
                          {
                            OFFSET -2.47579 0 0
                            CHANNELS 3 Zrotation Xrotation Yrotation
                            End Site
                            {
                              OFFSET -1.975 0 0
                            }
                          }
                        }
                      }
                    }
                    JOINT RightInHandRing
                    {
                      OFFSET -3.36516 0.537895 -0.128947
                      CHANNELS 3 Zrotation Xrotation Yrotation
                      JOINT RightHandRing1
                      {
                        OFFSET -4.63474 -0.022105 -0.478947
                        CHANNELS 3 Zrotation Xrotation Yrotation
                        JOINT RightHandRing2
                        {
                          OFFSET -3.44238 0 0
                          CHANNELS 3 Zrotation Xrotation Yrotation
                          JOINT RightHandRing3
                          {
                            OFFSET -2.3881 0 0
                            CHANNELS 3 Zrotation Xrotation Yrotation
                            End Site
                            {
                              OFFSET -1.857 0 0
                            }
                          }
                        }
                      }
                    }
                    JOINT RightInHandPinky
                    {
                      OFFSET -3.16105 0.469368 -1.20179
                      CHANNELS 3 Zrotation Xrotation Yrotation
                      JOINT RightHandPinky1
                      {
                        OFFSET -4.14105 -0.022105 -1.09053
                        CHANNELS 3 Zrotation Xrotation Yrotation
                        JOINT RightHandPinky2
                        {
                          OFFSET -2.75653 0 0
                          CHANNELS 3 Zrotation Xrotation Yrotation
                          JOINT RightHandPinky3
                          {
                            OFFSET -1.74189 0 0
                            CHANNELS 3 Zrotation Xrotation Yrotation
                            End Site
                            {
                              OFFSET -1.645 0 0
                            }
                          }
                        }
                      }
                    }
                  }
                }
              }
            }
            JOINT LeftShoulder
            {
              OFFSET 3.25131 6.94393 -0.0111894
              CHANNELS 3 Zrotation Xrotation Yrotation
              JOINT LeftArm
              {
                OFFSET 12.7762 -0.0164608 -0.057961
                CHANNELS 3 Zrotation Xrotation Yrotation
                JOINT LeftForeArm
                {
                  OFFSET 26.494 -0.0292415 -0.00751187
                  CHANNELS 3 Zrotation Xrotation Yrotation
                  JOINT LeftHand
                  {
                    OFFSET 26.0005 -0.052199 0.00178648
                    CHANNELS 3 Zrotation Xrotation Yrotation
                    JOINT LeftHandThumb1
                    {
                      OFFSET 2.48905 0.190105 3.12053
                      CHANNELS 3 Zrotation Xrotation Yrotation
                      JOINT LeftHandThumb2
                      {
                        OFFSET 3.68274 0 0
                        CHANNELS 3 Zrotation Xrotation Yrotation
                        JOINT LeftHandThumb3
                        {
                          OFFSET 2.55832 0 0
                          CHANNELS 3 Zrotation Xrotation Yrotation
                          End Site
                          {
                            OFFSET 2.194 0 0
                          }
                        }
                      }
                    }
                    JOINT LeftInHandIndex
                    {
                      OFFSET 3.22368 0.508421 1.97842
                      CHANNELS 3 Zrotation Xrotation Yrotation
                      JOINT LeftHandIndex1
                      {
                        OFFSET 5.21684 -0.091368 0.999158
                        CHANNELS 3 Zrotation Xrotation Yrotation
                        JOINT LeftHandIndex2
                        {
                          OFFSET 3.61937 0 0
                          CHANNELS 3 Zrotation Xrotation Yrotation
                          JOINT LeftHandIndex3
                          {
                            OFFSET 2.0521 0 0
                            CHANNELS 3 Zrotation Xrotation Yrotation
                            End Site
                            {
                              OFFSET 1.805 0 0
                            }
                          }
                        }
                      }
                    }
                    JOINT LeftInHandMiddle
                    {
                      OFFSET 3.38211 0.517263 0.756737
                      CHANNELS 3 Zrotation Xrotation Yrotation
                      JOINT LeftHandMiddle1
                      {
                        OFFSET 5.17411 -0.084 0.313895
                        CHANNELS 3 Zrotation Xrotation Yrotation
                        JOINT LeftHandMiddle2
                        {
                          OFFSET 3.94947 0 0
                          CHANNELS 3 Zrotation Xrotation Yrotation
                          JOINT LeftHandMiddle3
                          {
                            OFFSET 2.47579 0 0
                            CHANNELS 3 Zrotation Xrotation Yrotation
                            End Site
                            {
                              OFFSET 1.975 0 0
                            }
                          }
                        }
                      }
                    }
                    JOINT LeftInHandRing
                    {
                      OFFSET 3.36516 0.537895 -0.128947
                      CHANNELS 3 Zrotation Xrotation Yrotation
                      JOINT LeftHandRing1
                      {
                        OFFSET 4.63474 -0.022105 -0.478947
                        CHANNELS 3 Zrotation Xrotation Yrotation
                        JOINT LeftHandRing2
                        {
                          OFFSET 3.44238 0 0
                          CHANNELS 3 Zrotation Xrotation Yrotation
                          JOINT LeftHandRing3
                          {
                            OFFSET 2.3881 0 0
                            CHANNELS 3 Zrotation Xrotation Yrotation
                            End Site
                            {
                              OFFSET 1.857 0 0
                            }
                          }
                        }
                      }
                    }
                    JOINT LeftInHandPinky
                    {
                      OFFSET 3.16105 0.469368 -1.20179
                      CHANNELS 3 Zrotation Xrotation Yrotation
                      JOINT LeftHandPinky1
                      {
                        OFFSET 4.14105 -0.022105 -1.09053
                        CHANNELS 3 Zrotation Xrotation Yrotation
                        JOINT LeftHandPinky2
                        {
                          OFFSET 2.75653 0 0
                          CHANNELS 3 Zrotation Xrotation Yrotation
                          JOINT LeftHandPinky3
                          {
                            OFFSET 1.74189 0 0
                            CHANNELS 3 Zrotation Xrotation Yrotation
                            End Site
                            {
                              OFFSET 1.645 0 0
                            }
                          }
                        }
                      }
                    }
                  }
                }
              }
            }
          }
        }
      }
    }
  }
}
MOTION
Frames: 2
Frame Time: 0.00833333
2.250000000000000000e+03 0.000000000000000000e+00 0.000000000000000000e+00 0.000000000000000000e+00 0.000000000000000000e+00 0.000000000000000000e+00 2.885150000000000503e+01 -1.215180000000004590e-02 -1.130979999999999990e+02 3.157160000000000366e+01 -4.379109999999999303e+01 2.513759999999999906e+01 -6.183090000000000863e+00 2.267430000000000234e+01 4.800200000000001133e-01 2.839100000000001067e+00 -2.158819999999999073e-01 3.993889999999999674e+01 3.703999999999999915e+01 -4.394050000000000011e+00 1.628380000000000294e+01 -8.557819999999997762e+00 2.314059999999999917e+01 3.648769999999999847e+00 -5.983730000000001326e+00 -1.817040000000000077e+01 1.633539999999999637e+01 -9.914740000000001885e+00 -6.225630000000000663e+00 -4.397119999999999251e+00 -2.432590000000000252e+00 -1.834740000000000038e+00 -7.980429999999998358e-01 -4.022599999999999731e+00 -3.149750000000000050e+00 -1.152060000000000084e+00 -4.792349999999999666e-01 3.264640000000001985e-02 2.516960000000000086e+00 -1.391490000000000116e+00 -2.066780000000000062e+00 2.623870000000000147e+01 -8.554270000000000707e+00 4.511540000000000106e+00 3.269009999999998684e+01 8.995119999999998228e+00 3.594829999999999970e+00 -9.480809999999998183e+00 5.491459999999999297e+01 -6.585290000000000532e+01 1.788719999999999999e+01 2.729019999999999868e+01 -1.615810000000000635e+00 1.201150000000000091e+02 1.143520000000000003e+01 -2.003829999999999600e+01 6.440139999999999532e+00 2.818400000000000105e+01 1.072940000000000005e+01 1.915919999999999845e+01 2.120529999999999927e-14 -7.951389999999999226e-15 -1.000000000000000000e+01 4.687310000000000035e-15 -3.180549999999999982e-15 -1.000000000000000000e+01 -1.590279999999999485e-15 6.361109999999998952e-15 0.000000000000000000e+00 1.998179999999999978e+01 8.718970000000000331e-01 2.396399999999999864e+00 2.400000000000000000e+01 7.951389999999999226e-15 2.544439999999999986e-14 2.000000000000000000e+01 2.385420000000000017e-15 2.226389999999999639e-14 -1.590279999999999485e-15 6.361109999999998952e-15 0.000000000000000000e+00 2.000000000000000000e+01 -6.361109999999997375e-15 9.541660000000000512e-15 2.400000000000000000e+01 3.180549999999999193e-15 2.226389999999999639e-14 2.000000000000000000e+01 1.192709999999999929e-14 2.226390000000000270e-14 -1.590279999999999485e-15 6.361109999999998952e-15 0.000000000000000000e+00 1.997479999999999833e+01 -1.025649999999999951e+00 -2.819380000000000219e+00 2.400000000000000000e+01 9.541660000000000512e-15 9.541659999999997356e-15 2.000000000000000000e+01 1.590280000000000274e-15 1.272219999999999677e-14 -1.590279999999999485e-15 6.361109999999998952e-15 0.000000000000000000e+00 1.978150000000000119e+01 -3.009479999999999933e+00 -8.305149999999999366e+00 2.400000000000000000e+01 6.361110000000000530e-15 1.590280000000000747e-14 2.000000000000000000e+01 7.951389999999999226e-15 1.908329999999999831e-14 8.298919999999998964e+00 -1.519149999999999778e+01 -5.701579999999999870e+01 -7.486819999999998032e+00 2.184700000000000486e+01 -1.153590000000000089e+02 3.361560000000000770e+01 -1.109620000000000140e+01 -3.615240000000000009e+01 -3.804370000000000118e+01 -6.366900000000000226e+00 -1.589659999999999940e+01 -2.818400000000000105e+01 1.072940000000000005e+01 -1.915919999999999845e+01 1.718870000000000654e-15 -8.746530000000002124e-15 1.000000000000000000e+01 -5.555139999999999781e-15 5.963540000000000856e-16 1.000000000000000000e+01 7.205940000000000494e-15 -5.963539999999999870e-15 -6.361109999999999741e-15 -1.998179999999999978e+01 8.718970000000000331e-01 -2.396399999999999864e+00 -2.400000000000000000e+01 -3.180549999999999982e-15 -2.226389999999999639e-14 -2.000000000000000000e+01 3.180550000000000771e-15 -1.431249999999999581e-14 7.205940000000000494e-15 -5.963539999999999870e-15 -6.361109999999999741e-15 -2.000000000000000000e+01 1.113189999999999931e-14 -9.541660000000000512e-15 -2.400000000000000000e+01 0.000000000000000000e+00 -1.272219999999999993e-14 -2.000000000000000000e+01 1.272219999999999835e-14 -2.067360000000000051e-14 7.205940000000000494e-15 -5.963539999999999870e-15 -6.361109999999999741e-15 -1.997479999999999833e+01 -1.025649999999999951e+00 2.819380000000000219e+00 -2.400000000000000000e+01 3.180549999999999982e-15 0.000000000000000000e+00 -2.000000000000000000e+01 3.180550000000000771e-15 -1.431250000000000212e-14 7.205940000000000494e-15 -5.963539999999999870e-15 -6.361109999999999741e-15 -1.978150000000000119e+01 -3.009479999999999933e+00 8.305149999999999366e+00 -2.400000000000000000e+01 9.541660000000000512e-15 -1.272219999999999835e-14 -2.000000000000000000e+01 -3.180549999999999982e-15 -3.180550000000000771e-15
2.250000000000000000e+03 0.000000000000000000e+00 0.000000000000000000e+00 0.000000000000000000e+00 0.000000000000000000e+00 0.000000000000000000e+00 2.877620000000000289e+01 3.015579999999995486e-02 -1.134410000000000309e+02 3.178229999999999933e+01 -4.350330000000000297e+01 2.528820000000000334e+01 -6.214579999999999771e+00 2.261550000000000082e+01 5.176239999999998620e-01 2.908560000000000034e+00 -2.295260000000000078e-01 4.006279999999999575e+01 3.705129999999999058e+01 -4.207750000000000767e+00 1.639329999999999998e+01 -8.594540000000002067e+00 2.334260000000000090e+01 3.593230000000000146e+00 -5.681639999999998913e+00 -1.808409999999999940e+01 1.660069999999999979e+01 -9.862639999999998963e+00 -6.299840000000000551e+00 -4.389549999999998953e+00 -2.418839999999999879e+00 -1.853270000000000195e+00 -7.942780000000001506e-01 -4.000239999999999796e+00 -3.180740000000000567e+00 -1.145140000000000047e+00 -4.735749999999999682e-01 5.108250000000000290e-02 2.517199999999999438e+00 -1.365850000000000009e+00 -2.012100000000000666e+00 2.635840000000000316e+01 -8.478390000000000981e+00 4.652580000000000382e+00 3.268130000000000024e+01 8.981239999999997892e+00 3.591600000000000570e+00 -9.533269999999998134e+00 5.481650000000000489e+01 -6.574219999999999686e+01 1.759019999999999584e+01 2.712539999999999907e+01 -1.564659999999999940e+00 1.202630000000000052e+02 1.151319999999999943e+01 -1.989710000000000178e+01 6.723260000000000680e+00 2.818400000000000105e+01 1.072940000000000005e+01 1.915919999999999845e+01 2.502959999999999793e-14 0.000000000000000000e+00 -1.000000000000000000e+01 2.949209999999998869e-15 -1.590279999999999485e-15 -1.000000000000000000e+01 -7.156249999999999484e-15 1.590280000000000116e-14 -1.590280000000000077e-15 1.998179999999999978e+01 8.718970000000000331e-01 2.396399999999999864e+00 2.400000000000000000e+01 7.951389999999999226e-15 3.180550000000000140e-14 2.000000000000000000e+01 3.975690000000000513e-16 1.908330000000000147e-14 -7.156249999999999484e-15 1.590280000000000116e-14 -1.590280000000000077e-15 2.000000000000000000e+01 -3.180549999999997615e-15 1.272219999999999993e-14 2.400000000000000000e+01 -1.590279999999999485e-15 1.908330000000000147e-14 2.000000000000000000e+01 1.272219999999999677e-14 1.590280000000000116e-14 -7.156249999999999484e-15 1.590280000000000116e-14 -1.590280000000000077e-15 1.997479999999999833e+01 -1.025649999999999951e+00 -2.819380000000000219e+00 2.400000000000000000e+01 7.951389999999999226e-15 9.541659999999997356e-15 2.000000000000000000e+01 -1.590280000000000274e-15 1.272219999999999993e-14 -7.156249999999999484e-15 1.590280000000000116e-14 -1.590280000000000077e-15 1.978150000000000119e+01 -3.009479999999999933e+00 -8.305149999999999366e+00 2.400000000000000000e+01 6.361109999999999741e-15 1.908329999999999831e-14 2.000000000000000000e+01 7.951389999999999226e-15 1.590279999999999801e-14 8.294440000000001589e+00 -1.514470000000000027e+01 -5.694740000000000180e+01 -7.426140000000001073e+00 2.184640000000000271e+01 -1.156140000000000185e+02 3.373329999999999984e+01 -1.096480000000000032e+01 -3.595269999999999300e+01 -3.801440000000000197e+01 -6.238570000000001059e+00 -1.601940000000000097e+01 -2.818400000000000105e+01 1.072940000000000005e+01 -1.915919999999999845e+01 3.927059999999999563e-15 -1.118160000000000010e-14 1.000000000000000000e+01 -7.405349999999999528e-15 -1.789059999999999532e-15 1.000000000000000000e+01 5.938690000000000265e-15 -6.062930000000000091e-15 -6.361110000000001319e-15 -1.998179999999999978e+01 8.718970000000000331e-01 -2.396399999999999864e+00 -2.400000000000000000e+01 -1.590279999999999880e-15 -1.908329999999999831e-14 -2.000000000000000000e+01 9.541660000000000512e-15 -1.590280000000000432e-14 5.938690000000000265e-15 -6.062930000000000091e-15 -6.361110000000001319e-15 -2.000000000000000000e+01 1.033679999999999868e-14 -6.361109999999999741e-15 -2.400000000000000000e+01 3.180549999999998799e-15 -1.272219999999999835e-14 -2.000000000000000000e+01 1.272219999999999993e-14 -2.226389999999999955e-14 5.938690000000000265e-15 -6.062930000000000091e-15 -6.361110000000001319e-15 -1.997479999999999833e+01 -1.025649999999999951e+00 2.819380000000000219e+00 -2.400000000000000000e+01 0.000000000000000000e+00 0.000000000000000000e+00 -2.000000000000000000e+01 3.180550000000000376e-15 -9.541660000000000512e-15 5.938690000000000265e-15 -6.062930000000000091e-15 -6.361110000000001319e-15 -1.978150000000000119e+01 -3.009479999999999933e+00 8.305149999999999366e+00 -2.400000000000000000e+01 9.541660000000000512e-15 -1.272219999999999993e-14 -2.000000000000000000e+01 -3.180549999999999982e-15 -1.272219999999999993e-14
